<?xml version="1.0" encoding="utf-8"?>
<!-- Generator: Adobe Illustrator 28.1.0, SVG Export Plug-In . SVG Version: 6.00 Build 0)  -->
<svg version="1.1" id="Layer_1" xmlns="http://www.w3.org/2000/svg" xmlns:xlink="http://www.w3.org/1999/xlink" x="0px" y="0px"
	 viewBox="0 0 135 30" style="enable-background:new 0 0 135 30;" xml:space="preserve">
<style type="text/css">
	.st0{fill:#D51E46;}
</style>
<g>
	<path class="st0" d="M18.9,8.2V4.3H7.8c0,0-7.7-0.4-7.7,7.5c0,0-0.2,6.6,7.2,6.9h9.1v-3.9c0,0-8.9,0-8.9,0c-0.6,0-3.6,0-3.6-3.3
		c0-3.4,3.1-3.3,3.9-3.3C7.9,8.2,18.9,8.2,18.9,8.2z"/>
	<path d="M4,20V24h11.1c0,0,7.7,0.4,7.7-7.5c0,0,0.2-6.6-7.2-6.9H6.5v3.9c0,0,8.8,0,8.9,0c0.6,0,3.6,0,3.6,3.3
		c0,3.4-3.1,3.3-3.9,3.3C15,20,4,20,4,20z"/>
</g>
<g>
	<g>
		<path class="st0" d="M28,19.4l1.2-2.4c1.5,0.9,3.1,1.3,4.6,1.3c1.2,0,1.9-0.5,1.9-1.4c0-0.8-0.7-1.2-2.1-1.6L32.2,15
			c-2.2-0.6-3.5-1.9-3.5-3.9c0-1.1,0.4-2,1.3-2.7c0.9-0.7,2-1.1,3.5-1.1c1.5,0,3.1,0.4,4.8,1.2l-1.1,2.2c-1.2-0.6-2.4-0.9-3.5-0.9
			c-1.3,0-2,0.5-2,1.3c0,0.6,0.6,1.1,1.7,1.4l1.4,0.4c2.6,0.8,4,2.1,4,3.9c0,2.6-1.8,4.1-5,4.1C31.8,21,29.9,20.5,28,19.4z"/>
		<path class="st0" d="M49.6,15v5.7h-2.7v-5c0-1.2-0.7-1.9-1.9-1.9c-1.2,0-1.9,0.7-1.9,1.9v5h-2.7V7.9L43,7.6v4.8
			c0.7-0.7,1.6-1.1,2.8-1.1C48.1,11.3,49.6,12.8,49.6,15z"/>
		<path class="st0" d="M56.3,21c-1.5,0-2.7-0.4-3.7-1.3c-0.9-0.9-1.4-2-1.4-3.5s0.5-2.6,1.4-3.5c0.9-0.9,2.2-1.3,3.7-1.3
			c1.5,0,2.7,0.4,3.7,1.3c0.9,0.9,1.4,2,1.4,3.5s-0.5,2.6-1.4,3.5C59,20.5,57.8,21,56.3,21z M56.3,13.6c-1.4,0-2.4,1-2.4,2.5
			c0,1.5,1,2.5,2.4,2.5c1.4,0,2.5-1,2.5-2.5C58.7,14.6,57.7,13.6,56.3,13.6z"/>
		<path class="st0" d="M72.2,12.6c0.8,0.9,1.2,2,1.2,3.4c0,1.5-0.5,2.7-1.4,3.6C71,20.5,69.8,21,68.2,21c-0.9,0-1.7-0.2-2.4-0.6v3.9
			l-2.7,0.3v-13l2.4-0.3l0.2,1.2c0.8-0.8,1.9-1.2,3.3-1.2C70.3,11.3,71.4,11.7,72.2,12.6z M70.6,16.1c0-1.6-1-2.6-2.4-2.6
			c-1.4,0-2.4,0.8-2.4,2v2.7c0.7,0.4,1.3,0.6,2,0.6C69.5,18.8,70.6,17.7,70.6,16.1z"/>
		<path class="st0" d="M75.2,20.7V7.9l2.7-0.3v13H75.2z"/>
		<path class="st0" d="M80.1,20.7V7.9l2.7-0.3v13H80.1z"/>
		<path class="st0" d="M91.8,11.6h3l-5.8,13h-2.7l1.9-4.3L84,11.6l3-0.2l2.6,5.9L91.8,11.6z"/>
		<path class="st0" d="M104.2,20.7l-3.5-5.2l-1.4,1.7v3.5h-2.9v-13h2.9v5.7l4.6-5.7h3.5l-4.7,5.6l5,7.4H104.2z"/>
		<path class="st0" d="M115.6,11.6h2.4v9.1h-2.4l-0.2-1c-0.7,0.8-2,1.3-3.3,1.3c-1.3,0-2.3-0.4-3.1-1.3c-0.8-0.9-1.2-2-1.2-3.5
			c0-1.5,0.5-2.6,1.4-3.5c0.9-0.9,2.2-1.3,3.7-1.3c1,0,1.9,0.3,2.6,0.8L115.6,11.6z M115.3,16.6v-2.5c-0.6-0.4-1.3-0.5-2-0.5
			c-1.6,0-2.7,1.1-2.7,2.7c0,1.5,0.9,2.5,2.3,2.5C114.3,18.7,115.3,17.9,115.3,16.6z"/>
		<path class="st0" d="M126.8,11.4l-0.3,2.6c-0.4-0.1-0.6-0.1-0.9-0.1c-1.7,0-2.7,0.9-2.7,2.6v4.2h-2.7v-9.1l2.4-0.3l0.2,1.5
			c0.6-1,1.6-1.5,2.9-1.5C126.2,11.3,126.5,11.4,126.8,11.4z"/>
		<path class="st0" d="M134.9,20.3c-0.8,0.5-1.7,0.7-2.6,0.7c-2.2,0-3.4-1.3-3.4-3.5v-3.7h-1.4v-1.9l1.4-0.2l0.3-2.4l2.4-0.3v2.7
			h2.6l-0.1,2.1h-2.4v3.7c0,1,0.4,1.4,1.2,1.4c0.4,0,0.9-0.1,1.3-0.3L134.9,20.3z"/>
	</g>
</g>
</svg>
